<svg id="Layer_1" data-name="Layer 1" xmlns="http://www.w3.org/2000/svg" viewBox="0 0 758.7 683.66"><defs><style>.cls-1{fill:#e6e6e6;}.cls-2{fill:#a2dc4d;}.cls-3{fill:#fff;}.cls-4{fill:#2f2e41;}.cls-5{fill:#ffb8b8;}.cls-6{fill:#f2f2f2;}</style></defs><title>makalah</title><path class="cls-1" d="M728.11,271c0,118.6-76.18,219.4-182.28,256.14a272.76,272.76,0,0,1-133,11.26q-6.34-1-12.6-2.38-8.47-1.8-16.75-4.14C269.6,499.82,186.11,395.16,186.11,271c0-149.67,121.33-271,271-271S728.11,121.33,728.11,271Z" transform="translate(0 0)"/><path class="cls-2" d="M287.38,354.64a2,2,0,0,0-.84,2.76L388.43,548.24a2,2,0,0,0,2.76.84l144-76.9a2,2,0,0,0,.84-2.76L434.17,278.58a2,2,0,0,0-2.76-.84Z" transform="translate(0 0)"/><path class="cls-3" d="M300.76,360.22,394,534.85l127.83-68.24L428.59,292Zm-8.1,4.32h0Z" transform="translate(0 0)"/><path class="cls-2" d="M333,379.42c-2,1.06-2.41,4.16-.94,6.9s4.27,4.11,6.26,3.05l93.62-50c2-1.06,2.41-4.16.94-6.9s-4.27-4.11-6.26-3.05Z" transform="translate(0 0)"/><path class="cls-2" d="M344.53,401c-2,1.06-2.41,4.16-.94,6.9s4.27,4.11,6.26,3.05l93.62-50c2-1.06,2.41-4.16.94-6.9s-4.27-4.11-6.26-3.05Z" transform="translate(0 0)"/><path class="cls-2" d="M356.06,422.63c-2,1.06-2.41,4.16-.94,6.9s4.27,4.11,6.26,3.05l93.62-50c2-1.06,2.41-4.16.94-6.9s-4.27-4.11-6.26-3.05Z" transform="translate(0 0)"/><path class="cls-2" d="M367.6,444.23c-2,1.06-2.41,4.16-.94,6.9s4.27,4.11,6.26,3.05l93.62-50c2-1.06,2.41-4.16.94-6.9s-4.27-4.11-6.26-3.05Z" transform="translate(0 0)"/><path class="cls-2" d="M379.13,465.84c-2,1.06-2.41,4.16-.94,6.9s4.27,4.11,6.26,3.05l93.62-50c2-1.06,2.41-4.16.94-6.9s-4.27-4.11-6.26-3.05Z" transform="translate(0 0)"/><polygon class="cls-4" points="397.31 272.19 482.14 277.37 505.9 206.53 431.49 190.8 397.31 272.19"/><circle class="cls-5" cx="458.49" cy="220.35" r="33.93"/><path class="cls-4" d="M545.61,524.5l.22,2.64a272.76,272.76,0,0,1-133,11.26L400.26,536l12-26.59L420.11,492l-2.83-60.3-.3-6.24-.37-8,5.12,0,36.4-.22,34.69-.22,5.29,0C531.28,457.8,558.65,491,545.61,524.5Z" transform="translate(0 0)"/><path class="cls-4" d="M497.61,416.5l-81,9-3-56c-9.51-24.24-3.23-45.88,16.5-65.3l4-15.88a23.5,23.5,0,0,1,17.36-17.11h0c13.26-7.6,28.28-11.23,45.13-10.71h0a33.68,33.68,0,0,1,21.32,34C514.45,338.5,508.2,379.69,497.61,416.5Z" transform="translate(0 0)"/><path class="cls-4" d="M432.83,180.27s-17.54,6.4-18,29.68a42,42,0,0,0,1.55,11.59c1.14,4.28,2.05,13.56-5.6,25.93a239.88,239.88,0,0,0-13.53,24.91h0L417,274.28l3.27-32.74a162.53,162.53,0,0,1,11.61-46.17l.13-.31s9.06,15.75,26.29,15.27l-6.32-6s21.57,8.12,33.3,9.75a7.43,7.43,0,0,1,4.47,12.35l-.21.23c-7.17,7.59-21.45,25.23-12.46,38.52s1.72,17.19,1.72,17.19l13.32-7.76,6-3.86.14,4.92,31.88-4.59s8.58-1.47-10.47-21.87c0,0-5.1-8-3.17-15a35.35,35.35,0,0,0,.88-16.56C512.65,194.67,495.14,149.28,432.83,180.27Z" transform="translate(0 0)"/><ellipse class="cls-1" cx="457.11" cy="674.16" rx="122" ry="7"/><path class="cls-6" d="M.74,322.53A1,1,0,0,0,0,323.76L27.32,426.18a1,1,0,0,0,1.22.71l77.3-20.6a1,1,0,0,0,.71-1.22L79.27,302.65a1,1,0,0,0-1.22-.71Z" transform="translate(0 0)"/><path class="cls-3" d="M19.74,339.45c-1.07.28-1.61,1.71-1.22,3.19s1.58,2.44,2.64,2.16L71.41,331.4c1.07-.28,1.61-1.71,1.22-3.19s-1.58-2.44-2.64-2.16Z" transform="translate(0 0)"/><path class="cls-3" d="M22.83,351c-1.07.28-1.61,1.71-1.22,3.19s1.58,2.44,2.64,2.16L74.5,343c1.07-.28,1.61-1.71,1.22-3.19s-1.58-2.44-2.64-2.16Z" transform="translate(0 0)"/><path class="cls-3" d="M25.92,362.64c-1.07.28-1.61,1.71-1.22,3.19s1.58,2.44,2.64,2.16l50.25-13.39c1.07-.28,1.61-1.71,1.22-3.19s-1.58-2.44-2.64-2.16Z" transform="translate(0 0)"/><path class="cls-3" d="M29,374.24c-1.07.28-1.61,1.71-1.22,3.19s1.58,2.44,2.64,2.16l50.25-13.39c1.07-.28,1.61-1.71,1.22-3.19s-1.58-2.44-2.64-2.16Z" transform="translate(0 0)"/><path class="cls-3" d="M32.1,385.83c-1.07.28-1.61,1.71-1.22,3.19s1.58,2.44,2.64,2.16l50.25-13.39c1.07-.28,1.61-1.71,1.22-3.19s-1.58-2.44-2.64-2.16Z" transform="translate(0 0)"/><path class="cls-3" d="M35.19,397.43c-1.07.28-1.61,1.71-1.22,3.19s1.58,2.44,2.64,2.16l50.25-13.39c1.07-.28,1.61-1.71,1.22-3.19s-1.58-2.44-2.64-2.16Z" transform="translate(0 0)"/><path class="cls-6" d="M198.3,683.43c0,.13.45.23,1,.23h106c.55,0,1-.1,1-.23V664.89c0-.13-.45-.23-1-.23h-106c-.55,0-1,.1-1,.23Z" transform="translate(0 0)"/><path class="cls-3" d="M219.53,680.18c0,.26,1.24.46,2.76.46s2.76-.21,2.76-.46v-12c0-.26-1.24-.46-2.76-.46s-2.76.21-2.76.46Z" transform="translate(0 0)"/><path class="cls-3" d="M231.53,680.18c0,.26,1.24.46,2.76.46s2.76-.21,2.76-.46v-12c0-.26-1.24-.46-2.76-.46s-2.76.21-2.76.46Z" transform="translate(0 0)"/><path class="cls-3" d="M243.53,680.18c0,.26,1.24.46,2.76.46s2.76-.21,2.76-.46v-12c0-.26-1.24-.46-2.76-.46s-2.76.21-2.76.46Z" transform="translate(0 0)"/><path class="cls-3" d="M255.53,680.18c0,.26,1.24.46,2.76.46s2.76-.21,2.76-.46v-12c0-.26-1.24-.46-2.76-.46s-2.76.21-2.76.46Z" transform="translate(0 0)"/><path class="cls-3" d="M267.53,680.18c0,.26,1.24.46,2.76.46s2.76-.21,2.76-.46v-12c0-.26-1.24-.46-2.76-.46s-2.76.21-2.76.46Z" transform="translate(0 0)"/><path class="cls-3" d="M279.53,680.18c0,.26,1.24.46,2.76.46s2.76-.21,2.76-.46v-12c0-.26-1.24-.46-2.76-.46s-2.76.21-2.76.46Z" transform="translate(0 0)"/><path class="cls-1" d="M3.58,248.62A1,1,0,0,0,3.17,250l49.92,93.51a1,1,0,0,0,1.35.41L125,306.21a1,1,0,0,0,.41-1.35L75.5,211.35a1,1,0,0,0-1.35-.41Z" transform="translate(0 0)"/><path class="cls-3" d="M10.14,251.35l45.69,85.57,62.63-33.44L72.77,217.91Zm-4,2.12h0Z" transform="translate(0 0)"/><path class="cls-2" d="M25.93,260.76c-1,.52-1.18,2-.46,3.38s2.09,2,3.07,1.5L74.4,241.14c1-.52,1.18-2,.46-3.38s-2.09-2-3.07-1.5Z" transform="translate(0 0)"/><path class="cls-2" d="M31.58,271.34c-1,.52-1.18,2-.46,3.38s2.09,2,3.07,1.5l45.87-24.49c1-.52,1.18-2,.46-3.38s-2.09-2-3.07-1.5Z" transform="translate(0 0)"/><path class="cls-2" d="M37.23,281.93c-1,.52-1.18,2-.46,3.38s2.09,2,3.07,1.5l45.87-24.49c1-.52,1.18-2,.46-3.38s-2.09-2-3.07-1.5Z" transform="translate(0 0)"/><path class="cls-2" d="M42.89,292.51c-1,.52-1.18,2-.46,3.38s2.09,2,3.07,1.5L91.36,272.9c1-.52,1.18-2,.46-3.38s-2.09-2-3.07-1.5Z" transform="translate(0 0)"/><path class="cls-2" d="M48.54,303.1c-1,.52-1.18,2-.46,3.38s2.09,2,3.07,1.5L97,283.49c1-.52,1.18-2,.46-3.38s-2.09-2-3.07-1.5Z" transform="translate(0 0)"/><path class="cls-2" d="M54.19,313.69c-1,.52-1.18,2-.46,3.38s2.09,2,3.07,1.5l45.87-24.49c1-.52,1.18-2,.46-3.38s-2.09-2-3.07-1.5Z" transform="translate(0 0)"/><path class="cls-1" d="M689.33,487.57a1,1,0,0,0-1.37.35L634,579.18a1,1,0,0,0,.35,1.37l68.87,40.7a1,1,0,0,0,1.37-.35l53.93-91.26a1,1,0,0,0-.35-1.37Z" transform="translate(0 0)"/><path class="cls-3" d="M690.41,494.6l-49.35,83.51,61.12,36.12,49.35-83.51Zm-3.87-2.29h0Z" transform="translate(0 0)"/><path class="cls-2" d="M690.58,513c-.95-.56-2.35.05-3.13,1.36s-.63,2.84.32,3.4l44.77,26.46c.95.56,2.35-.05,3.13-1.36s.63-2.84-.32-3.4Z" transform="translate(0 0)"/><path class="cls-2" d="M684.48,523.31c-.95-.56-2.35.05-3.13,1.36s-.63,2.84.32,3.4l44.77,26.46c.95.56,2.35-.05,3.13-1.36s.63-2.84-.32-3.4Z" transform="translate(0 0)"/><path class="cls-2" d="M678.37,533.64c-.95-.56-2.35.05-3.13,1.36s-.63,2.84.32,3.4l44.77,26.46c.95.56,2.35-.05,3.13-1.36s.63-2.84-.32-3.4Z" transform="translate(0 0)"/><path class="cls-2" d="M672.27,544c-.95-.56-2.35.05-3.13,1.36s-.63,2.84.32,3.4l44.77,26.46c.95.56,2.35-.05,3.13-1.36s.63-2.84-.32-3.4Z" transform="translate(0 0)"/><path class="cls-2" d="M666.16,554.3c-.95-.56-2.35.05-3.13,1.36s-.63,2.84.32,3.4l44.77,26.46c.95.56,2.35-.05,3.13-1.36s.63-2.84-.32-3.4Z" transform="translate(0 0)"/><path class="cls-2" d="M660.06,564.63c-.95-.56-2.35.05-3.13,1.36s-.63,2.84.32,3.4L702,595.85c.95.56,2.35-.05,3.13-1.36s.63-2.84-.32-3.4Z" transform="translate(0 0)"/><path class="cls-5" d="M440.61,321.5l-1,6.44-11,67.56-6.88,22-2.42,7.73-2,6.5-24.67,78.8-6.77,15.9a19,19,0,1,0,22.21,7l48.29-112.33,1.79-3.84,5.48-11.75L474,327.41l.65-4.91Z" transform="translate(0 0)"/><path class="cls-4" d="M480.61,329.5c-15.72-5.65-30.79-6.25-45,0l4.64-40.2a19.17,19.17,0,0,1,18.15-19.79h0a19.17,19.17,0,0,1,20.15,18.14v.07Z" transform="translate(0 0)"/></svg>