<svg id="Layer_1" data-name="Layer 1" xmlns="http://www.w3.org/2000/svg" viewBox="0 0 654.24 682.11"><defs><style>.cls-1{fill:#f2f2f2;}.cls-2{opacity:0.1;isolation:isolate;}.cls-3{fill:#3f3d56;}.cls-4{fill:#a2dc4d;}.cls-5{fill:#575a89;}.cls-6{fill:#a0616a;}.cls-7{fill:#2f2e41;}.cls-8{fill:#6c63ff;}</style></defs><title>math</title><path class="cls-1" d="M620,635.61c0,25.68-138.79,46.5-310,46.5S0,661.29,0,635.61C0,617.43,69.57,601.68,171,594c41.81-3.16,89-4.93,139-4.93,20.55,0,40.63.3,60,.87C512.52,594.18,620,613,620,635.61Z" transform="translate(0 0)"/><ellipse class="cls-2" cx="270" cy="630.61" rx="119" ry="14.5"/><ellipse class="cls-3" cx="269.5" cy="521.11" rx="112.5" ry="120"/><rect class="cls-4" x="235" y="592.11" width="70" height="64"/><polygon class="cls-5" points="396.5 607.61 392.5 629.61 418.5 633.61 435.5 623.61 434.5 607.61 396.5 607.61"/><path class="cls-6" d="M265.5,194.61s-2,23-7,24,11,41,11,41h24l19-5-9-22s-12-16-3-29S265.5,194.61,265.5,194.61Z" transform="translate(0 0)"/><path class="cls-2" d="M265.5,194.61s-2,23-7,24,11,41,11,41h24l19-5-9-22s-12-16-3-29S265.5,194.61,265.5,194.61Z" transform="translate(0 0)"/><path class="cls-7" d="M215.5,370.61s-26,50-5,60,26,9,26,12-4,2-2,7-4,25,2,37,4,21,4,21,0,1,2,5,3,7,2,9-7,15-1,18,37,5,40,0-3-8,0-11,5-4,3-6-4-27-4-27,5-29,3-33-5-8-3-11,4-2,5-6,3-13,3-13l11-1,26,5s29,32,61,42c0,0,9,9,12,9s3,0,2,2-4,2-2,4,5-1,3,2-4,3-2,5-1,13-1,14-9,95-6,97,45,8,48,0-2-18-2-18,15-120,11-128-18-44-93-67c0,0-21-4-21-7s-2-22-6-23-27-2-27-2l-29,9-40-7Z" transform="translate(0 0)"/><path class="cls-7" d="M250.5,538.61l-5,18s-4,29,1,36c3.93,5.5,10.94,12.23,23.94,13.41a16.07,16.07,0,0,0,16.78-11.12,5,5,0,0,0,.28-1.29c0-2-3-26-3-26l-5-25-1-7Z" transform="translate(0 0)"/><path class="cls-7" d="M396.5,624.61s-5-5-6,0-5,26,2,27,74,11,81,7,20-10,12-13-31-12-31-12-13-17-15-18-13,1-18,5S396.5,624.61,396.5,624.61Z" transform="translate(0 0)"/><circle class="cls-6" cx="289.5" cy="184.61" r="31"/><path class="cls-1" d="M286.5,254.61l-12-13-13.3-26s-9.7-3-11.7,2-38,21-38,21,9,84,5,92-11,40-5,43,34,0,43,4,35,4,42-1,9-9,16-6c6,2.55,19.89-84.76,23.9-110.78a11.84,11.84,0,0,0-4.91-11.51c-9-6.29-25.13-17.14-28-15.71C299.5,234.61,286.5,254.61,286.5,254.61Z" transform="translate(0 0)"/><path class="cls-1" d="M329.5,250.61h0a11.86,11.86,0,0,1,8.91,10.2l8.09,72.8s-20,43-30,14S329.5,250.61,329.5,250.61Z" transform="translate(0 0)"/><path class="cls-1" d="M327.5,340.61l22-6s4,28,8,28-14,16-23,14-22-9-23-14,9-26,9-26Z" transform="translate(0 0)"/><path class="cls-7" d="M266.1,198c2.11-4.65,1.74-10.07,3.48-14.87a17.73,17.73,0,0,1,27-8.38c2.24,1.6,4.49,3.84,7.23,3.54,2.95-.33,5.58-3.62,8.28-2.41,3,1.34,2.19,6.72,5.23,8,1.6.65,3.49-.35,4.42-1.82a11.22,11.22,0,0,0,1.29-5c.42-4.27.8-8.78-1.05-12.64a30.29,30.29,0,0,1-2-4.09,14,14,0,0,1-.39-4c0-5-.38-10.24-2.91-14.57-2.8-4.81-8-7.88-13.37-9.22s-11.05-1.14-16.6-.67c-9.16.78-18.72,2.44-25.94,8.13a10.15,10.15,0,0,0-2.49,2.62,13.52,13.52,0,0,0-1.33,3.84,79.45,79.45,0,0,1-7,18.28,39.65,39.65,0,0,0-3.6,7.77c-.77,2.75-.71,5.89.89,8.26,1.3,1.93,3.39,3,5,4.53s2.38,4.56,4.18,5.75c1.57,1,3.45.3,5.05,1.4C263.53,193.78,263.68,196.86,266.1,198Z" transform="translate(0 0)"/><path class="cls-7" d="M291.5,269.61l3-6s44,13,53,25c0,0,22-14,34-12l12,2-37,33-47-4Z" transform="translate(0 0)"/><path class="cls-4" d="M289.5,263.61l-41,57,59,29s5.52,3,9.76,0l39.24-18,37-53-37,19s-4-8-12-4Z" transform="translate(0 0)"/><path class="cls-6" d="M352.5,364.61l8-21s18-23,8-34-21,32-21,32Z" transform="translate(0 0)"/><path class="cls-6" d="M260.2,361.26l17.46-14.15s27.11-10.86,24-25.4-34.22,17.15-34.22,17.15Z" transform="translate(0 0)"/><path class="cls-2" d="M217,260.11h-1s-15.5-18.5-18.5,6.5-13,108,13,111,44.5-12.5,44.5-12.5,19-29,12-29c-3.39,0-12.6-1.52-21-1-9,.56-17,3.08-16.5.5C230.5,330.61,245,267.11,217,260.11Z" transform="translate(0 0)"/><path class="cls-1" d="M215.5,240.61l-4-2s-16,3-19,28-13,108,13,111,61-4,61-4,7-38,0-38-43,5-42,0S243.5,247.61,215.5,240.61Z" transform="translate(0 0)"/><polygon class="cls-1" points="338 353.11 349.03 336.21 356 364.11 338 372.11 338 353.11"/><circle class="cls-1" cx="111.47" cy="85.11" r="27"/><rect class="cls-1" x="79.47" y="286.11" width="64" height="64"/><polygon class="cls-1" points="372 0 388.2 28.06 404.4 56.11 372 56.11 339.6 56.11 355.8 28.06 372 0"/><path class="cls-8" d="M654.24,168.23q-.58,18-8.75,28.78t-19.4,10.83q-9.15,0-16-10.6t-6.89-32.61q0-4.86.23-9.27T604,147L608,108.92H581.26q-6.95,72.28-11.41,86t-15.12,13.73a12.78,12.78,0,0,1-8.57-3.59,12.06,12.06,0,0,1-4.05-9.5q0-5.33,8.4-14.88t9.32-17.43l6.95-54.32H555.55a19.91,19.91,0,0,0-9.09,2.26,17.16,17.16,0,0,0-6.54,5.27l-5,7.41h-4.05q5.67-17.61,14-26.47t19.05-8.86h88.49v20.39H622.5q-1.39,13.9-2.14,27.8t-.75,27.92q0,9.5,4.4,15.41T635,186q4.05,0,8.51-3.3a12,12,0,0,0,5-8.63q.35-2.55.52-4t.17-1.8Z" transform="translate(0 0)"/><path class="cls-4" d="M654.24,168.23q-.58,18-8.75,28.78t-19.4,10.83q-9.15,0-16-10.6t-6.89-32.61q0-4.86.23-9.27T604,147L608,108.92H581.26q-6.95,72.28-11.41,86t-15.12,13.73a12.78,12.78,0,0,1-8.57-3.59,12.06,12.06,0,0,1-4.05-9.5q0-5.33,8.4-14.88t9.32-17.43l6.95-54.32H555.55a19.91,19.91,0,0,0-9.09,2.26,17.16,17.16,0,0,0-6.54,5.27l-5,7.41h-4.05q5.67-17.61,14-26.47t19.05-8.86h88.49v20.39H622.5q-1.39,13.9-2.14,27.8t-.75,27.92q0,9.5,4.4,15.41T635,186q4.05,0,8.51-3.3a12,12,0,0,0,5-8.63q.35-2.55.52-4t.17-1.8Z" transform="translate(0 0)"/><path class="cls-4" d="M654.24,164.61q-.58,18-8.75,28.78t-19.4,10.83q-9.15,0-16-10.6T603.16,161q0-4.86.23-9.27t.58-8.34L608,105.31H581.26q-6.95,72.28-11.41,86T554.74,205a12.78,12.78,0,0,1-8.57-3.59,12.06,12.06,0,0,1-4.05-9.5q0-5.33,8.4-14.88t9.32-17.43l6.95-54.32H555.55a19.91,19.91,0,0,0-9.09,2.26,17.16,17.16,0,0,0-6.54,5.27l-5,7.41h-4.05q5.67-17.61,14-26.47t19.05-8.86h88.49v20.39H622.5q-1.39,13.9-2.14,27.8T619.6,161q0,9.5,4.4,15.41t11,5.91q4.05,0,8.51-3.3a12,12,0,0,0,5-8.63q.35-2.55.52-4t.17-1.8Z" transform="translate(0 0)"/></svg>