<svg id="Layer_1" data-name="Layer 1" xmlns="http://www.w3.org/2000/svg" viewBox="0 0 808.84 681.89"><defs><style>.cls-1{fill:#f2f2f2;}.cls-2{fill:#fff;}.cls-3{fill:#f0f0f0;}.cls-4{fill:#cacaca;}.cls-5{fill:#e4e4e4;}.cls-6{fill:#a2dc4d;}.cls-7{fill:#ffb6b6;}.cls-8{fill:#2f2e41;}.cls-9{fill:#ffb8b8;}</style></defs><title>thesis_journal</title><path class="cls-1" d="M663.14,551.67,394.79,429.17,533,126.49,801.31,249Z" transform="translate(7.53 -1.41)"/><path class="cls-2" d="M704,375.83,500.87,283.09a1.59,1.59,0,0,1,1.32-2.89h0l203.14,92.74a1.59,1.59,0,0,1-1.32,2.89Z" transform="translate(7.53 -1.41)"/><path class="cls-2" d="M715.31,351.09,512.17,258.35a1.59,1.59,0,0,1,1.32-2.89h0L716.63,348.2a1.59,1.59,0,0,1-1.32,2.89Z" transform="translate(7.53 -1.41)"/><path class="cls-2" d="M726.61,326.35,523.46,233.61a1.59,1.59,0,0,1,1.32-2.89l203.14,92.74a1.59,1.59,0,0,1-1.32,2.89Z" transform="translate(7.53 -1.41)"/><path class="cls-2" d="M737.9,301.6,534.76,208.86a1.59,1.59,0,0,1,1.32-2.89l203.14,92.74a1.59,1.59,0,0,1-1.32,2.89Z" transform="translate(7.53 -1.41)"/><path class="cls-2" d="M693.81,398.2,490.66,305.46a1.59,1.59,0,0,1,1.32-2.89l203.14,92.74a1.59,1.59,0,0,1-1.32,2.89h0Z" transform="translate(7.53 -1.41)"/><path class="cls-2" d="M727.73,265.3,569,192.86a4,4,0,0,1-2.23-4.78,3.82,3.82,0,0,1,4.84-2.4l.37.14,158.63,72.42a4,4,0,0,1,2.26,4.85,3.82,3.82,0,0,1-4.87,2.33Z" transform="translate(7.53 -1.41)"/><path class="cls-1" d="M117.16,249l268.35-122.5L523.68,429.17,255.34,551.67Z" transform="translate(7.53 -1.41)"/><path class="cls-2" d="M214.46,375.83,417.6,283.09a1.59,1.59,0,0,0-1.32-2.89L213.14,372.95a1.59,1.59,0,1,0,1.32,2.89h0Z" transform="translate(7.53 -1.41)"/><path class="cls-2" d="M203.16,351.09l203.14-92.74a1.59,1.59,0,0,0-1.32-2.89h0L201.85,348.2a1.59,1.59,0,1,0,1.32,2.89Z" transform="translate(7.53 -1.41)"/><path class="cls-2" d="M191.87,326.35,395,233.61a1.59,1.59,0,0,0-1.32-2.89L190.55,323.46a1.59,1.59,0,0,0,1.32,2.89Z" transform="translate(7.53 -1.41)"/><path class="cls-2" d="M180.57,301.6l203.14-92.74A1.59,1.59,0,0,0,382.4,206L179.25,298.72a1.59,1.59,0,0,0,1.32,2.89h0Z" transform="translate(7.53 -1.41)"/><path class="cls-2" d="M224.67,398.2l203.14-92.74a1.59,1.59,0,0,0-1.32-2.89L223.35,395.31a1.59,1.59,0,0,0,1.32,2.89h0Z" transform="translate(7.53 -1.41)"/><path class="cls-2" d="M190.75,265.3l158.68-72.44a4,4,0,0,0,2.23-4.78,3.82,3.82,0,0,0-4.84-2.4l-.37.14L187.82,258.25a4,4,0,0,0-2.26,4.85,3.82,3.82,0,0,0,4.87,2.33Z" transform="translate(7.53 -1.41)"/><path class="cls-3" d="M19.3,606.39C21,580.14,35.61,553.52,60,543.56a121.17,121.17,0,0,0,4.93,83c4.43,10.1,10.41,20.87,7.44,31.49-1.85,6.61-7,11.89-12.95,15.35s-12.62,5.34-19.23,7.18l-1.25,1.17C26.84,658.43,17.6,632.63,19.3,606.39Z" transform="translate(7.53 -1.41)"/><path class="cls-2" d="M60.23,544A103.57,103.57,0,0,0,38,603.75a44.6,44.6,0,0,0,1.33,13.91,25.58,25.58,0,0,0,7.05,11.47c3,3,6.51,5.67,8.79,9.33a15.66,15.66,0,0,1,1.52,12.72c-1.5,5.29-4.81,9.73-8.2,14-3.76,4.69-7.75,9.51-9.11,15.52-.17.73-1.29.43-1.12-.3,2.37-10.45,12-16.88,16.21-26.42,2-4.45,2.6-9.52.25-14-2.06-3.88-5.63-6.66-8.74-9.64a27.3,27.3,0,0,1-7.31-11,41.23,41.23,0,0,1-1.86-13.81,100.48,100.48,0,0,1,5.52-30.92,105.4,105.4,0,0,1,17.12-31.44c.46-.58,1.28.24.82.82Z" transform="translate(7.53 -1.41)"/><path class="cls-2" d="M37.88,596.73a15.54,15.54,0,0,1-12.77-15.55.58.58,0,0,1,1.16,0,14.39,14.39,0,0,0,11.91,14.44c.73.13.43,1.25-.3,1.12Z" transform="translate(7.53 -1.41)"/><path class="cls-2" d="M44.63,627.82a30,30,0,0,0,12.33-18c.17-.73,1.29-.43,1.12.3a31.15,31.15,0,0,1-12.87,18.72C44.59,629.25,44,628.24,44.63,627.82Z" transform="translate(7.53 -1.41)"/><path class="cls-2" d="M47.31,564.31a8.8,8.8,0,0,0,8.3-.92c.61-.43,1.19.58.58,1a9.86,9.86,0,0,1-9.17,1,.6.6,0,0,1-.41-.71.58.58,0,0,1,.71-.41Z" transform="translate(7.53 -1.41)"/><path class="cls-3" d="M138.45,585.6l-1.13.84a115.84,115.84,0,0,0-14.1,12.42c-.34.34-.68.7-1,1a122.11,122.11,0,0,0-24.32,37.81,118.59,118.59,0,0,0-5.49,17.16c-1.92,8.08-3.36,17-7.71,23.77a20.35,20.35,0,0,1-1.47,2l-42.8,2.54-.3-.12-1.7.18c.05-.31.11-.62.16-.93s.07-.36.1-.53,0-.24.06-.35l0-.11c0-.11,0-.21.05-.31q.49-2.66,1-5.32s0,0,0,0c2.72-13.52,6.59-26.93,12.37-39.32.17-.37.35-.76.54-1.13a113.16,113.16,0,0,1,9.23-16,100,100,0,0,1,6.2-8A83.19,83.19,0,0,1,88,594.48c14.87-9,32.46-13.18,49.16-9.2Z" transform="translate(7.53 -1.41)"/><path class="cls-2" d="M138.39,586.15a103.57,103.57,0,0,0-53.71,34.28,44.6,44.6,0,0,0-7.31,11.91,25.58,25.58,0,0,0-1.27,13.4c.64,4.21,1.79,8.44,1.4,12.74A15.66,15.66,0,0,1,71,669.55c-4.39,3.32-9.7,4.87-15,6.21-5.83,1.48-11.91,2.93-16.62,6.91-.57.48-1.28-.43-.72-.91,8.19-6.92,19.75-6.26,28.85-11.34,4.25-2.37,7.81-6,8.6-11,.69-4.34-.48-8.7-1.17-13a27.3,27.3,0,0,1,.76-13.15,41.23,41.23,0,0,1,6.83-12.15,100.48,100.48,0,0,1,23-21.36,105.4,105.4,0,0,1,32.6-14.8c.72-.19.87,1,.16,1.15Z" transform="translate(7.53 -1.41)"/><path class="cls-2" d="M88.82,614.76a15.54,15.54,0,0,1-.84-20.1c.46-.59,1.39.1.93.69a14.39,14.39,0,0,0,.82,18.7c.51.55-.41,1.26-.91.72Z" transform="translate(7.53 -1.41)"/><path class="cls-2" d="M75.48,643.65a30,30,0,0,0,20.69-7c.57-.48,1.29.43.72.91a31.15,31.15,0,0,1-21.54,7.2C74.6,644.76,74.74,643.61,75.48,643.65Z" transform="translate(7.53 -1.41)"/><path class="cls-2" d="M115.86,594.56a8.8,8.8,0,0,0,7.17,4.26c.75,0,.6,1.18-.14,1.15a9.86,9.86,0,0,1-7.95-4.7.6.6,0,0,1,.1-.81.58.58,0,0,1,.81.1Z" transform="translate(7.53 -1.41)"/><path class="cls-2" d="M658.89,554.21H257.63V101.63H658.89Z" transform="translate(7.53 -1.41)"/><path class="cls-4" d="M658.89,554.21H257.63V101.63H658.89Zm-399.1-2.16H656.73V103.79H259.79Z" transform="translate(7.53 -1.41)"/><path class="cls-5" d="M610.14,313.54H306.38a2.16,2.16,0,1,1,0-4.31H610.14a2.16,2.16,0,0,1,0,4.31Z" transform="translate(7.53 -1.41)"/><path class="cls-5" d="M610.14,276.54H306.38a2.16,2.16,0,1,1,0-4.31H610.14a2.16,2.16,0,0,1,0,4.31Z" transform="translate(7.53 -1.41)"/><path class="cls-5" d="M610.14,239.54H306.38a2.16,2.16,0,1,1,0-4.31H610.14a2.16,2.16,0,0,1,0,4.31Z" transform="translate(7.53 -1.41)"/><path class="cls-5" d="M610.14,202.54H306.38a2.16,2.16,0,1,1,0-4.31H610.14a2.16,2.16,0,0,1,0,4.31Z" transform="translate(7.53 -1.41)"/><path class="cls-5" d="M610.14,347H306.38a2.16,2.16,0,1,1,0-4.31H610.14a2.16,2.16,0,0,1,0,4.31Z" transform="translate(7.53 -1.41)"/><path class="cls-5" d="M610.14,513H306.38a2.16,2.16,0,1,1,0-4.31H610.14a2.16,2.16,0,0,1,0,4.31Z" transform="translate(7.53 -1.41)"/><path class="cls-2" d="M537.38,478.35H379.15a4,4,0,0,1-4-4V381.28a4,4,0,0,1,4-4H537.38a4,4,0,0,1,4,4v93.08A4,4,0,0,1,537.38,478.35Z" transform="translate(7.53 -1.41)"/><path class="cls-6" d="M484.54,425.18a8.8,8.8,0,0,0-12.44-.42l-.21.2-44.53,44.53a6.29,6.29,0,0,1-8.87,0l-6.6-6.58a8.78,8.78,0,0,0-12.42,0h0l-12.76,12.78h143.1v-1.82Z" transform="translate(7.53 -1.41)"/><path class="cls-6" d="M537.38,478.35H379.15a4,4,0,0,1-4-4V381.28a4,4,0,0,1,4-4H537.38a4,4,0,0,1,4,4v93.08A4,4,0,0,1,537.38,478.35ZM379.15,380a1.33,1.33,0,0,0-1.33,1.33v93.08a1.33,1.33,0,0,0,1.33,1.33H537.38a1.33,1.33,0,0,0,1.33-1.33V381.28a1.33,1.33,0,0,0-1.33-1.33Z" transform="translate(7.53 -1.41)"/><path class="cls-7" d="M155.91,462.79A10.06,10.06,0,0,0,147.24,450l-8.29-34.76-12.71,13.54,9.82,30.93a10.11,10.11,0,0,0,19.85,3Z" transform="translate(7.53 -1.41)"/><path class="cls-5" d="M133.75,450.18a4.51,4.51,0,0,1-2.71-2.48l-17.58-43a46.37,46.37,0,0,1-1.65-32.6l11.26-35.28a14.5,14.5,0,0,1,28.88,2.6v0L137,396.28l10,44.62a4.51,4.51,0,0,1-2.2,4.68l-7.42,4.24a4.51,4.51,0,0,1-2.62.58A4.45,4.45,0,0,1,133.75,450.18Z" transform="translate(7.53 -1.41)"/><polygon class="cls-7" points="203.8 669.08 216.06 669.08 221.89 621.79 203.8 621.79 203.8 669.08"/><path class="cls-8" d="M193.14,666.49h24.15a15.39,15.39,0,0,1,15.39,15.39v.5H193.14Z" transform="translate(7.53 -1.41)"/><polygon class="cls-7" points="134.8 669.08 147.06 669.08 152.89 621.79 134.8 621.79 134.8 669.08"/><path class="cls-8" d="M124.14,666.49h24.15a15.39,15.39,0,0,1,15.39,15.39v.5H124.14Z" transform="translate(7.53 -1.41)"/><path class="cls-8" d="M203.65,432l-71.9-6.33s-7.1,45.33-6.1,63.33,2,46,2,46l-8,122,31-4,4-101,13-55,15,70,10,90,27-3-9-109S218.65,447,203.65,432Z" transform="translate(7.53 -1.41)"/><circle class="cls-9" cx="182.18" cy="277.56" r="20"/><path class="cls-5" d="M196.55,323.63l-14.28-11.37s-15.47-11.94-24.54-3.11L153.65,315s-23.1,8.66-23.1,19.66l1.1,60.34s-8,31,4,33l69.9,5.66-.9-57.66Z" transform="translate(7.53 -1.41)"/><path class="cls-8" d="M159.15,296.47s-21-15-10-33c7.63-12.49,23.44-11.5,32.41-9.72a15.15,15.15,0,0,1,11.09,8.72c1.5,3.5,1.5,7-4.5,7-12,0-6,9-6,9s-8,2-6,9S159.15,296.47,159.15,296.47Z" transform="translate(7.53 -1.41)"/><path class="cls-7" d="M268.71,429a10.06,10.06,0,0,0-13.94-6.58L230,396.7l-4.07,18.12,24.17,21.66A10.11,10.11,0,0,0,268.71,429Z" transform="translate(7.53 -1.41)"/><path class="cls-5" d="M243.22,429.41a4.51,4.51,0,0,1-3.59-.76l-37-28.12a46.37,46.37,0,0,1-18-27.25l-8.21-36.12a14.5,14.5,0,0,1,26.19-12.43l0,0,16,56.53,31.28,33.36a4.51,4.51,0,0,1,.48,5.15l-4.24,7.42a4.51,4.51,0,0,1-2,1.83A4.46,4.46,0,0,1,243.22,429.41Z" transform="translate(7.53 -1.41)"/><path class="cls-4" d="M751.13,31.59H173.57a.84.84,0,0,1,0-1.68H751.13a.84.84,0,0,1,0,1.68Z" transform="translate(7.53 -1.41)"/><circle class="cls-6" cx="199.97" cy="9.22" r="9.22"/><circle class="cls-6" cx="231.82" cy="9.22" r="9.22"/><circle class="cls-6" cx="263.67" cy="9.22" r="9.22"/><path class="cls-6" d="M732,7H709.41a1.68,1.68,0,0,1,0-3.35H732A1.68,1.68,0,0,1,732,7Z" transform="translate(7.53 -1.41)"/><path class="cls-6" d="M732,13.34H709.41a1.68,1.68,0,0,1,0-3.35H732a1.68,1.68,0,0,1,0,3.35Z" transform="translate(7.53 -1.41)"/><path class="cls-6" d="M732,19.62H709.41a1.68,1.68,0,0,1,0-3.35H732a1.68,1.68,0,0,1,0,3.35Z" transform="translate(7.53 -1.41)"/><path class="cls-4" d="M374.47,682.63h-381a1,1,0,0,1-1-1,1,1,0,0,1,1-1h381a1,1,0,0,1,0,2Z" transform="translate(7.53 -1.41)"/><path class="cls-6" d="M577,163.37H339.77a5.39,5.39,0,0,1-5.46-4.65,5.19,5.19,0,0,1,4.63-5.7l.53,0h237.2a5.44,5.44,0,0,1,5.54,4.72,5.19,5.19,0,0,1-4.71,5.63Z" transform="translate(7.53 -1.41)"/></svg>